<svg xmlns="http://www.w3.org/2000/svg" viewBox="0 0 900 620" role="img" aria-labelledby="title desc">
  <title id="title">In-pipe inspection robot</title>
  <desc id="desc">A mobile inspection robot inside a pipeline with AI signal markers.</desc>
  <defs>
    <linearGradient id="bg" x1="0" y1="0" x2="1" y2="1">
      <stop offset="0" stop-color="#f8fbff"/>
      <stop offset="1" stop-color="#e8ecff"/>
    </linearGradient>
    <linearGradient id="pipe" x1="0" y1=".5" x2="1" y2=".5">
      <stop offset="0" stop-color="#d8dee9"/>
      <stop offset=".5" stop-color="#ffffff"/>
      <stop offset="1" stop-color="#c5cedd"/>
    </linearGradient>
  </defs>
  <rect width="900" height="620" rx="52" fill="url(#bg)"/>
  <ellipse cx="450" cy="310" rx="348" ry="188" fill="url(#pipe)" stroke="#535da1" stroke-width="16"/>
  <ellipse cx="450" cy="310" rx="256" ry="118" fill="#eef3f8" stroke="#94a3b8" stroke-width="10"/>
  <path d="M204 310h492" stroke="#cbd5e1" stroke-width="20" stroke-linecap="round"/>
  <g transform="translate(315 236)">
    <rect x="58" y="44" width="170" height="90" rx="30" fill="#535da1"/>
    <rect x="108" y="18" width="76" height="48" rx="18" fill="#14b8a6"/>
    <circle cx="76" cy="150" r="34" fill="#263238"/>
    <circle cx="210" cy="150" r="34" fill="#263238"/>
    <circle cx="76" cy="150" r="13" fill="#8be3d6"/>
    <circle cx="210" cy="150" r="13" fill="#8be3d6"/>
    <path d="M228 72l70-36" stroke="#14b8a6" stroke-width="16" stroke-linecap="round"/>
    <circle cx="310" cy="30" r="28" fill="#fff" stroke="#535da1" stroke-width="10"/>
    <circle cx="310" cy="30" r="9" fill="#14b8a6"/>
  </g>
  <g fill="none" stroke="#14b8a6" stroke-width="9" stroke-linecap="round">
    <path d="M660 156c46 34 76 86 82 146"/>
    <path d="M620 188c32 27 52 66 56 110"/>
    <path d="M242 444c-38-30-64-78-70-132"/>
  </g>
  <g fill="#535da1">
    <circle cx="176" cy="190" r="14"/>
    <circle cx="232" cy="142" r="10"/>
    <circle cx="292" cy="182" r="12"/>
    <circle cx="734" cy="436" r="14"/>
    <circle cx="680" cy="488" r="10"/>
  </g>
</svg>
