<svg xmlns="http://www.w3.org/2000/svg" viewBox="0 0 900 620" role="img" aria-labelledby="title desc">
  <title id="title">Robotic manipulator with computer vision</title>
  <desc id="desc">A stylized robotic arm, camera frame, and neural network points.</desc>
  <defs>
    <linearGradient id="bg" x1="0" y1="0" x2="1" y2="1">
      <stop offset="0" stop-color="#eef7ff"/>
      <stop offset="1" stop-color="#d8efe8"/>
    </linearGradient>
    <linearGradient id="arm" x1="0" y1="0" x2="1" y2="1">
      <stop offset="0" stop-color="#535da1"/>
      <stop offset="1" stop-color="#14b8a6"/>
    </linearGradient>
  </defs>
  <rect width="900" height="620" rx="52" fill="url(#bg)"/>
  <circle cx="710" cy="130" r="86" fill="#ffffff" opacity=".72"/>
  <circle cx="194" cy="470" r="126" fill="#ffffff" opacity=".58"/>
  <path d="M120 120h260v180H120z" fill="#fff" stroke="#535da1" stroke-width="12" rx="24"/>
  <path d="M160 164h180v92H160z" fill="#dff4ef" rx="14"/>
  <path d="M190 250l42-48 36 34 32-42 50 56" fill="none" stroke="#14b8a6" stroke-width="12" stroke-linecap="round" stroke-linejoin="round"/>
  <circle cx="640" cy="420" r="58" fill="#ffffff" stroke="#535da1" stroke-width="14"/>
  <path d="M322 420h178" stroke="url(#arm)" stroke-width="42" stroke-linecap="round"/>
  <path d="M490 410l96-126" stroke="url(#arm)" stroke-width="42" stroke-linecap="round"/>
  <path d="M588 286l116 82" stroke="url(#arm)" stroke-width="42" stroke-linecap="round"/>
  <circle cx="322" cy="420" r="48" fill="#535da1"/>
  <circle cx="500" cy="420" r="42" fill="#14b8a6"/>
  <circle cx="586" cy="286" r="42" fill="#535da1"/>
  <path d="M700 338l54 28-38 74-54-28z" fill="#263238"/>
  <circle cx="705" cy="389" r="18" fill="#8be3d6"/>
  <path d="M315 506h390" stroke="#263238" stroke-width="18" stroke-linecap="round"/>
  <g fill="#535da1">
    <circle cx="610" cy="126" r="11"/>
    <circle cx="690" cy="88" r="11"/>
    <circle cx="770" cy="126" r="11"/>
    <circle cx="690" cy="172" r="11"/>
  </g>
  <g stroke="#535da1" stroke-width="5" opacity=".55">
    <path d="M610 126l80-38 80 38-80 46z"/>
    <path d="M610 126l80 46"/>
    <path d="M770 126l-80-38"/>
  </g>
</svg>
