<svg xmlns="http://www.w3.org/2000/svg" viewBox="0 0 980 720" role="img" aria-labelledby="title desc">
  <title id="title">Robotics research and teaching profile</title>
  <desc id="desc">A stylized academic robotics workspace with a robotic arm, laptop, equations, and research notes.</desc>
  <defs>
    <linearGradient id="bg" x1="0" y1="0" x2="1" y2="1">
      <stop offset="0" stop-color="#f7fbff"/>
      <stop offset=".55" stop-color="#edf7f3"/>
      <stop offset="1" stop-color="#f4f0ff"/>
    </linearGradient>
    <linearGradient id="primary" x1="0" y1="0" x2="1" y2="1">
      <stop offset="0" stop-color="#535da1"/>
      <stop offset="1" stop-color="#14b8a6"/>
    </linearGradient>
    <filter id="shadow" x="-20%" y="-20%" width="140%" height="140%">
      <feDropShadow dx="0" dy="20" stdDeviation="18" flood-color="#1f2937" flood-opacity=".16"/>
    </filter>
  </defs>

  <rect width="980" height="720" rx="58" fill="url(#bg)"/>
  <circle cx="166" cy="142" r="78" fill="#ffffff" opacity=".8"/>
  <circle cx="826" cy="546" r="116" fill="#ffffff" opacity=".66"/>
  <path d="M84 590c130-74 246-80 348-18 82 50 170 56 264 18 66-27 128-29 196-6" fill="none" stroke="#dbeafe" stroke-width="34" stroke-linecap="round"/>

  <g filter="url(#shadow)">
    <rect x="96" y="105" width="338" height="236" rx="30" fill="#ffffff"/>
    <path d="M136 166h258M136 222h186M136 278h228" stroke="#94a3b8" stroke-width="16" stroke-linecap="round"/>
    <rect x="136" y="122" width="112" height="30" rx="15" fill="#14b8a6"/>
    <path d="M304 124l36 28 44-56" fill="none" stroke="#535da1" stroke-width="13" stroke-linecap="round" stroke-linejoin="round"/>
  </g>

  <g filter="url(#shadow)">
    <rect x="160" y="448" width="314" height="156" rx="28" fill="#263238"/>
    <rect x="196" y="476" width="242" height="84" rx="16" fill="#dff4ef"/>
    <path d="M214 584h366" stroke="#263238" stroke-width="24" stroke-linecap="round"/>
  </g>

  <g>
    <path d="M510 458h150" stroke="url(#primary)" stroke-width="40" stroke-linecap="round"/>
    <path d="M648 450l74-104" stroke="url(#primary)" stroke-width="40" stroke-linecap="round"/>
    <path d="M716 348l98 62" stroke="url(#primary)" stroke-width="40" stroke-linecap="round"/>
    <circle cx="510" cy="458" r="48" fill="#535da1"/>
    <circle cx="660" cy="458" r="42" fill="#14b8a6"/>
    <circle cx="724" cy="346" r="42" fill="#535da1"/>
    <path d="M804 386l58 30-40 78-58-30z" fill="#263238"/>
    <circle cx="811" cy="437" r="19" fill="#8be3d6"/>
    <path d="M526 548h320" stroke="#263238" stroke-width="18" stroke-linecap="round"/>
  </g>

  <g fill="none" stroke="#535da1" stroke-width="8" stroke-linecap="round" opacity=".8">
    <path d="M620 158c42-28 86-28 132 0"/>
    <path d="M640 198c30-18 60-18 90 0"/>
    <path d="M668 238c14-8 28-8 42 0"/>
  </g>

  <g fill="#535da1">
    <circle cx="612" cy="290" r="12"/>
    <circle cx="690" cy="260" r="12"/>
    <circle cx="768" cy="292" r="12"/>
    <circle cx="690" cy="330" r="12"/>
  </g>
  <g stroke="#535da1" stroke-width="5" opacity=".45">
    <path d="M612 290l78-30 78 32-78 38z"/>
    <path d="M612 290l78 40"/>
    <path d="M768 292l-78-32"/>
  </g>

  <g font-family="Arial, sans-serif" font-weight="700">
    <text x="132" y="402" fill="#535da1" font-size="34">AI + Robotics</text>
    <text x="132" y="438" fill="#64748b" font-size="22">Research, CAD, control systems</text>
    <text x="666" y="124" fill="#14b8a6" font-size="30">PhD</text>
  </g>
</svg>
